<svg width="30" height="39" viewBox="0 0 30 39" fill="none" xmlns="http://www.w3.org/2000/svg">
<path d="M26.5689 27.9789L21.8823 26.2747C21.8982 26.0652 21.8276 25.8521 21.6747 25.6915L20.2558 24.2008V21.6983C20.4058 21.5747 20.5537 21.4477 20.697 21.3135C22.487 19.6356 23.5136 17.2668 23.5136 14.8144V12.8158C24.0541 11.6396 24.328 10.3949 24.328 9.11316V0.968645C24.328 0.547972 23.987 0.206924 23.5663 0.206924H12.1641C8.15132 0.206924 4.88679 3.47156 4.88679 7.4843V9.11316C4.88679 10.3949 5.16071 11.6396 5.70122 12.8158V14.5354C5.70122 17.3828 6.9673 19.9481 8.95905 21.6393V24.2006L7.54002 25.6915C7.38716 25.8521 7.31648 26.0652 7.33242 26.2747L2.64581 27.9789C1.06326 28.5543 0 30.0723 0 31.7564V37.6191C0 38.0397 0.341048 38.3808 0.76172 38.3808C1.18239 38.3808 1.52344 38.0397 1.52344 37.6191V31.7564C1.52344 30.7107 2.1837 29.7679 3.16652 29.4106L8.10775 27.6137L10.1648 30.6994C10.4277 31.0938 10.8491 31.3469 11.321 31.3935C11.3735 31.3987 11.4259 31.4013 11.478 31.4013C11.8942 31.4013 12.2928 31.2375 12.5908 30.9396L13.8458 29.6846V37.6191C13.8458 38.0397 14.1869 38.3808 14.6076 38.3808C15.0282 38.3808 15.3693 38.0397 15.3693 37.6191V29.6846L16.6243 30.9396C16.9222 31.2376 17.3208 31.4013 17.7371 31.4013C17.7892 31.4013 17.8416 31.3988 17.8941 31.3935C18.366 31.3469 18.7873 31.0938 19.0503 30.6993L21.1074 27.6137L26.0486 29.4106C27.0313 29.768 27.6917 30.7107 27.6917 31.7564V37.6191C27.6917 38.0397 28.0327 38.3808 28.4534 38.3808C28.8741 38.3808 29.2151 38.0397 29.2151 37.6191V31.7564C29.2147 30.0723 28.1515 28.5543 26.5689 27.9789ZM7.22456 14.5354V12.6455C7.22456 12.5308 7.19866 12.4176 7.1488 12.3143C6.65865 11.2993 6.41013 10.2222 6.41013 9.11326V7.4844C6.41013 4.31168 8.99135 1.73047 12.164 1.73047H22.8046V9.11326C22.8046 10.2222 22.5561 11.2993 22.0659 12.3143C22.0161 12.4176 21.9902 12.5308 21.9902 12.6455V14.8144C21.9902 16.8772 21.1609 18.7906 19.6551 20.202C18.1506 21.6122 16.1832 22.3151 14.1144 22.1812C10.2509 21.9312 7.22456 18.5727 7.22456 14.5354ZM11.5135 29.8623C11.5082 29.8676 11.496 29.8796 11.471 29.8774C11.4461 29.875 11.4365 29.8605 11.4323 29.8542L9.06335 26.3007L9.82568 25.4997L13.4195 27.9562L11.5135 29.8623ZM14.6074 26.9229L10.4824 24.1033V22.6814C11.5498 23.2584 12.7449 23.6193 14.016 23.7015C14.2166 23.7145 14.4162 23.7209 14.6151 23.7209C16.0716 23.7209 17.4734 23.3728 18.7323 22.7119V24.1033L14.6074 26.9229ZM17.7825 29.8544C17.7783 29.8607 17.7687 29.8752 17.7438 29.8777C17.7189 29.8798 17.7066 29.8677 17.7014 29.8625L15.7953 27.9565L19.3891 25.5L20.1515 26.301L17.7825 29.8544Z" fill="#283772"/>
</svg>
