<svg width="35" height="35" viewBox="0 0 35 35" fill="none" xmlns="http://www.w3.org/2000/svg">
<g clip-path="url(#clip0)">
<path d="M33.6143 7.72263L17.7229 0.0509314C17.582 -0.0170178 17.418 -0.0170178 17.2772 0.0509314L1.38572 7.72263C1.20854 7.80815 1.09595 7.98759 1.09595 8.18433V26.8156C1.09595 27.0123 1.20854 27.1918 1.38572 27.2773L17.2771 34.949C17.3475 34.983 17.4238 35 17.5 35C17.5762 35 17.6525 34.983 17.7229 34.949L33.6143 27.2773C33.7915 27.1918 33.9041 27.0123 33.9041 26.8156V8.1844C33.9041 7.98752 33.7914 7.80822 33.6143 7.72263ZM17.5 1.082L32.2121 8.18433L27.9474 10.2432C27.9204 10.2226 27.8919 10.2036 27.8606 10.1885L13.2484 3.13449L17.5 1.082ZM12.0905 3.71417L26.7812 10.8062L23.7724 12.2588L9.08777 5.16961L12.0905 3.71417ZM27.1249 11.7788V17.1482L24.3145 18.505V13.1356L27.1249 11.7788ZM32.8787 26.4939L18.0127 33.6704V16.1778L21.5587 14.4659C21.8137 14.3428 21.9206 14.0364 21.7975 13.7813C21.6744 13.5264 21.3679 13.4194 21.1129 13.5425L17.5 15.2867L16.0784 14.6004C15.8234 14.4772 15.5169 14.5842 15.3938 14.8392C15.2707 15.0942 15.3776 15.4007 15.6326 15.5238L16.9873 16.1778V33.6704L2.12134 26.4938V9.00116L13.4417 14.4661C13.5135 14.5009 13.5894 14.5173 13.6642 14.5173C13.8547 14.5173 14.0378 14.4105 14.1262 14.2274C14.2493 13.9724 14.1424 13.6659 13.8874 13.5427L2.78791 8.18433L7.88103 5.72558L23.282 13.1606C23.2842 13.1637 23.2868 13.1665 23.2891 13.1696V19.3218C23.2891 19.4983 23.3798 19.6623 23.5292 19.7561C23.6122 19.8082 23.7069 19.8345 23.8019 19.8345C23.8779 19.8345 23.9541 19.8177 24.0247 19.7835L27.8606 17.9318C28.0377 17.8462 28.1503 17.6669 28.1503 17.4701V11.2839L32.8787 9.00122V26.4939Z" fill="#283772"/>
<path d="M6.35236 24.5054L4.02028 23.3796C3.76516 23.2564 3.45878 23.3634 3.33566 23.6184C3.21255 23.8734 3.31946 24.1799 3.57444 24.303L5.90652 25.4288C5.97837 25.4635 6.05431 25.4799 6.12903 25.4799C6.31962 25.4799 6.50268 25.3732 6.59107 25.19C6.71425 24.935 6.60734 24.6286 6.35236 24.5054Z" fill="#283772"/>
<path d="M8.49865 23.1083L4.0235 20.9479C3.76845 20.8248 3.462 20.9317 3.33888 21.1868C3.21584 21.4417 3.32275 21.7483 3.57773 21.8714L8.05288 24.0318C8.12473 24.0665 8.20067 24.0829 8.27539 24.0829C8.46598 24.0829 8.64904 23.9762 8.73743 23.793C8.86055 23.5379 8.75363 23.2314 8.49865 23.1083Z" fill="#283772"/>
</g>
<defs>
<clipPath id="clip0">
<rect width="35" height="35" fill="white"/>
</clipPath>
</defs>
</svg>
